# xmcd
# 
# Track frame offsets:
#     150
#     39975
#     91982
#     142637
#     189372
# 
# Disc length: 3208
# 
# Revision: 0
# Processed by: cddbd v1.5.2PL0 Copyright (c) Steve Scherf et al.
# Submitted via: fre:ac v1.0.17
# 
DISCID=300c8605
DTITLE=Manhattan Jazz Quintet - Take Five
DYEAR=0
DGENRE=Jazz
TTITLE0=Caravan
TTITLE1=A Dawn In Asia
TTITLE2=Take Five 
TTITLE3=Manteca
TTITLE4=A Night In Tunisia
EXTD=
EXTT0=
EXTT1=
EXTT2=
EXTT3=
EXTT4=
PLAYORDER=
